<svg width="40" height="40" viewBox="0 0 40 40" fill="none" xmlns="http://www.w3.org/2000/svg">
<path d="M29.9999 21.6615H21.6666V29.9948C21.6666 30.4368 21.491 30.8607 21.1784 31.1733C20.8659 31.4859 20.4419 31.6615 19.9999 31.6615C19.5579 31.6615 19.134 31.4859 18.8214 31.1733C18.5088 30.8607 18.3333 30.4368 18.3333 29.9948V21.6615H9.99992C9.55789 21.6615 9.13397 21.4859 8.82141 21.1733C8.50885 20.8607 8.33325 20.4368 8.33325 19.9948C8.33325 19.5528 8.50885 19.1288 8.82141 18.8163C9.13397 18.5037 9.55789 18.3281 9.99992 18.3281H18.3333V9.99479C18.3333 9.55276 18.5088 9.12884 18.8214 8.81628C19.134 8.50372 19.5579 8.32812 19.9999 8.32812C20.4419 8.32812 20.8659 8.50372 21.1784 8.81628C21.491 9.12884 21.6666 9.55276 21.6666 9.99479V18.3281H29.9999C30.4419 18.3281 30.8659 18.5037 31.1784 18.8163C31.491 19.1288 31.6666 19.5528 31.6666 19.9948C31.6666 20.4368 31.491 20.8607 31.1784 21.1733C30.8659 21.4859 30.4419 21.6615 29.9999 21.6615Z" fill="#AEEA00"/>
</svg>
