<svg width="40" height="40" viewBox="0 0 40 40" fill="none" xmlns="http://www.w3.org/2000/svg">
<path d="M17.2614 25.3128C17.2614 22.6244 11.9531 22.2536 11.9531 15.5028C11.9531 8.75193 15.7031 8.08193 15.7031 5.4611C15.7031 2.84027 5.31641 6.02777 5.31641 16.0794C5.31641 26.1311 17.2614 28.0011 17.2614 25.3128Z" stroke="black" stroke-linecap="round" stroke-linejoin="round"/>
<path d="M25.2532 22.6807C22.5649 22.6807 22.194 27.989 15.4432 27.989C8.69236 27.989 8.02236 24.239 5.40153 24.239C2.7807 24.239 5.9682 34.6265 16.0199 34.6265C26.0715 34.6265 27.9415 22.6807 25.2532 22.6807ZM14.7465 17.3482C17.4349 17.3482 17.8057 12.039 24.5565 12.039C31.3074 12.039 31.9774 15.7898 34.5982 15.7898C37.219 15.7898 34.0315 5.40234 23.9799 5.40234C13.9282 5.40234 12.0582 17.3482 14.7465 17.3482Z" stroke="black" stroke-linecap="round" stroke-linejoin="round"/>
<path d="M22.7383 14.6876C22.7383 17.376 28.0474 17.7468 28.0474 24.4976C28.0474 31.2485 24.2974 31.9185 24.2974 34.5393C24.2974 37.1601 34.6841 33.9726 34.6841 23.921C34.6841 13.8693 22.7383 11.9993 22.7383 14.6876Z" stroke="black" stroke-linecap="round" stroke-linejoin="round"/>
</svg>
