<svg width="20" height="20" viewBox="0 0 20 20" fill="none" xmlns="http://www.w3.org/2000/svg">
<path d="M13.0841 2.95068C13.2849 2.398 13.4102 1.92163 13.4102 1.46936C13.4102 1.39385 13.3853 1.34404 13.3853 1.26853C13.3853 1.19302 13.3604 1.0926 13.3347 0.992188C12.0791 1.26853 11.2011 1.82041 10.6484 2.62373C10.0957 3.40215 9.82019 4.33079 9.79448 5.41045C10.2468 5.35984 10.6227 5.28513 10.899 5.20962C11.2758 5.0843 11.6775 4.83286 12.0791 4.45611C12.5314 4.00384 12.8824 3.45195 13.0833 2.94988L13.0841 2.95068ZM11.6526 5.46106C10.899 5.7125 10.3721 5.81291 10.0957 5.81291C9.87 5.81291 9.39282 5.7125 8.61441 5.51167C7.86089 5.28593 7.2335 5.15981 6.68162 5.15981C5.45173 5.15981 4.42188 5.68679 3.59365 6.74155C2.79033 7.79631 2.38867 9.12661 2.38867 10.7831C2.38867 12.5656 2.91565 14.3731 3.97041 16.2304C5.05007 18.0885 6.15464 18.9922 7.2343 18.9922C7.58615 18.9922 8.03762 18.8669 8.66501 18.6403C9.2426 18.4146 9.74468 18.2885 10.1961 18.2885C10.6476 18.2885 11.2003 18.3889 11.8277 18.6146C12.4808 18.8404 12.9829 18.9408 13.3588 18.9408C14.2875 18.9408 15.2169 18.2379 16.1455 16.857C16.4468 16.4047 16.7231 15.9283 16.9489 15.4761C17.1497 15.0495 17.3256 14.5972 17.4758 14.1707C16.7978 13.9698 16.2202 13.4927 15.7439 12.7898C15.2667 12.0619 15.0161 11.2586 15.0161 10.3798C15.0161 9.55157 15.2418 8.82295 15.6941 8.14576C15.9704 7.7939 16.397 7.34244 16.9497 6.86526C16.7737 6.63953 16.5729 6.41299 16.397 6.23787C16.1961 6.06194 16.0202 5.91172 15.8443 5.7856C15.1414 5.33333 14.363 5.0827 13.5098 5.0827C13.0078 5.0827 12.3804 5.23372 11.6518 5.45945L11.6526 5.46106Z" fill="black"/>
</svg>
