<svg width="41" height="40" viewBox="0 0 41 40" fill="none" xmlns="http://www.w3.org/2000/svg">
<path d="M30.5 6.66927H28.8333V5.0026C28.8333 4.56058 28.6577 4.13665 28.3452 3.82409C28.0326 3.51153 27.6087 3.33594 27.1667 3.33594C26.7246 3.33594 26.3007 3.51153 25.9882 3.82409C25.6756 4.13665 25.5 4.56058 25.5 5.0026V6.66927H15.5V5.0026C15.5 4.56058 15.3244 4.13665 15.0118 3.82409C14.6993 3.51153 14.2754 3.33594 13.8333 3.33594C13.3913 3.33594 12.9674 3.51153 12.6548 3.82409C12.3423 4.13665 12.1667 4.56058 12.1667 5.0026V6.66927H10.5C9.17392 6.66927 7.90215 7.19606 6.96447 8.13374C6.02678 9.07142 5.5 10.3432 5.5 11.6693V31.6693C5.5 32.9954 6.02678 34.2671 6.96447 35.2048C7.90215 36.1425 9.17392 36.6693 10.5 36.6693H30.5C31.8261 36.6693 33.0979 36.1425 34.0355 35.2048C34.9732 34.2671 35.5 32.9954 35.5 31.6693V11.6693C35.5 10.3432 34.9732 9.07142 34.0355 8.13374C33.0979 7.19606 31.8261 6.66927 30.5 6.66927ZM13.8333 28.3359C13.5037 28.3359 13.1815 28.2382 12.9074 28.0551C12.6333 27.8719 12.4197 27.6116 12.2935 27.3071C12.1674 27.0025 12.1344 26.6674 12.1987 26.3441C12.263 26.0208 12.4217 25.7238 12.6548 25.4908C12.8879 25.2577 13.1849 25.0989 13.5082 25.0346C13.8315 24.9703 14.1666 25.0033 14.4711 25.1295C14.7757 25.2556 15.036 25.4692 15.2191 25.7433C15.4023 26.0174 15.5 26.3396 15.5 26.6693C15.5 27.1113 15.3244 27.5352 15.0118 27.8478C14.6993 28.1603 14.2754 28.3359 13.8333 28.3359ZM27.1667 28.3359H20.5C20.058 28.3359 19.634 28.1603 19.3215 27.8478C19.0089 27.5352 18.8333 27.1113 18.8333 26.6693C18.8333 26.2272 19.0089 25.8033 19.3215 25.4908C19.634 25.1782 20.058 25.0026 20.5 25.0026H27.1667C27.6087 25.0026 28.0326 25.1782 28.3452 25.4908C28.6577 25.8033 28.8333 26.2272 28.8333 26.6693C28.8333 27.1113 28.6577 27.5352 28.3452 27.8478C28.0326 28.1603 27.6087 28.3359 27.1667 28.3359ZM32.1667 18.3359H8.83333V11.6693C8.83333 11.2272 9.00893 10.8033 9.32149 10.4908C9.63405 10.1782 10.058 10.0026 10.5 10.0026H12.1667V11.6693C12.1667 12.1113 12.3423 12.5352 12.6548 12.8478C12.9674 13.1603 13.3913 13.3359 13.8333 13.3359C14.2754 13.3359 14.6993 13.1603 15.0118 12.8478C15.3244 12.5352 15.5 12.1113 15.5 11.6693V10.0026H25.5V11.6693C25.5 12.1113 25.6756 12.5352 25.9882 12.8478C26.3007 13.1603 26.7246 13.3359 27.1667 13.3359C27.6087 13.3359 28.0326 13.1603 28.3452 12.8478C28.6577 12.5352 28.8333 12.1113 28.8333 11.6693V10.0026H30.5C30.942 10.0026 31.366 10.1782 31.6785 10.4908C31.9911 10.8033 32.1667 11.2272 32.1667 11.6693V18.3359Z" fill="#AEEA00"/>
</svg>
