<svg width="41" height="40" viewBox="0 0 41 40" fill="none" xmlns="http://www.w3.org/2000/svg">
<path fill-rule="evenodd" clip-rule="evenodd" d="M6.27325 5.77203C3.83325 8.21536 3.83325 12.142 3.83325 19.9987C3.83325 27.8554 3.83325 31.7837 6.27325 34.2237C8.71659 36.6654 12.6433 36.6654 20.4999 36.6654C28.3566 36.6654 32.2849 36.6654 34.7249 34.2237C37.1666 31.7854 37.1666 27.8554 37.1666 19.9987C37.1666 12.142 37.1666 8.2137 34.7249 5.77203C32.2866 3.33203 28.3566 3.33203 20.4999 3.33203C12.6433 3.33203 8.71492 3.33203 6.27325 5.77203ZM23.4166 16.6654C23.4166 17.3554 23.9766 17.9154 24.6666 17.9154H25.8166L22.4616 21.2704C22.4229 21.3092 22.3769 21.34 22.3263 21.361C22.2757 21.382 22.2214 21.3928 22.1666 21.3928C22.1118 21.3928 22.0575 21.382 22.0069 21.361C21.9563 21.34 21.9103 21.3092 21.8716 21.2704L19.2283 18.627C18.6813 18.0805 17.9398 17.7735 17.1666 17.7735C16.3934 17.7735 15.6518 18.0805 15.1049 18.627L11.2833 22.4487C11.1604 22.5631 11.0619 22.7011 10.9936 22.8545C10.9253 23.0078 10.8886 23.1733 10.8856 23.3412C10.8826 23.509 10.9135 23.6757 10.9764 23.8314C11.0392 23.987 11.1328 24.1284 11.2515 24.2471C11.3702 24.3658 11.5116 24.4594 11.6673 24.5222C11.8229 24.5851 11.9896 24.616 12.1575 24.613C12.3253 24.6101 12.4908 24.5733 12.6441 24.505C12.7975 24.4367 12.9355 24.3382 13.0499 24.2154L16.8716 20.3937C16.9103 20.3549 16.9563 20.3241 17.0069 20.3031C17.0575 20.2821 17.1118 20.2713 17.1666 20.2713C17.2214 20.2713 17.2757 20.2821 17.3263 20.3031C17.3769 20.3241 17.4229 20.3549 17.4616 20.3937L20.1049 23.037C20.6518 23.5836 21.3934 23.8906 22.1666 23.8906C22.9398 23.8906 23.6813 23.5836 24.2283 23.037L27.5833 19.6837V20.832C27.5833 21.1636 27.7149 21.4815 27.9494 21.7159C28.1838 21.9503 28.5017 22.082 28.8333 22.082C29.1648 22.082 29.4827 21.9503 29.7171 21.7159C29.9516 21.4815 30.0833 21.1636 30.0833 20.832V16.6654C30.0833 16.3338 29.9516 16.0159 29.7171 15.7815C29.4827 15.5471 29.1648 15.4154 28.8333 15.4154H24.6666C24.3351 15.4154 24.0171 15.5471 23.7827 15.7815C23.5483 16.0159 23.4166 16.3338 23.4166 16.6654Z" fill="#AEEA00"/>
</svg>
