<svg width="14" height="14" viewBox="0 0 14 14" fill="none" xmlns="http://www.w3.org/2000/svg">
<path d="M7 1.5C6.25414 1.5 5.54077 1.64405 4.85988 1.93216C4.20196 2.21054 3.61912 2.60361 3.11137 3.11137C2.60361 3.61912 2.21054 4.20196 1.93216 4.85988C1.64405 5.54077 1.5 6.25414 1.5 7C1.5 7.74586 1.64405 8.45923 1.93216 9.14012C2.21054 9.79804 2.60361 10.3809 3.11137 10.8886C3.61912 11.3964 4.20196 11.7895 4.85988 12.0678C5.54077 12.3559 6.25414 12.5 7 12.5C7.74586 12.5 8.45923 12.3559 9.14012 12.0678C9.79804 11.7895 10.3809 11.3964 10.8886 10.8886C11.3964 10.3809 11.7895 9.79804 12.0678 9.14012C12.3559 8.45923 12.5 7.74586 12.5 7C12.5 6.25414 12.3559 5.54077 12.0678 4.85988C11.7895 4.20196 11.3964 3.61912 10.8886 3.11137C10.3809 2.60361 9.79804 2.21054 9.14012 1.93216C8.45923 1.64405 7.74586 1.5 7 1.5ZM7 0.5C7.8811 0.5 8.72437 0.670402 9.5298 1.0112C10.3074 1.34024 10.9961 1.80459 11.5957 2.40426C12.1954 3.00393 12.6597 3.69257 12.9888 4.4702C13.3296 5.27563 13.5 6.1189 13.5 7C13.5 7.8811 13.3296 8.72437 12.9888 9.5298C12.6597 10.3074 12.1954 10.9961 11.5957 11.5957C10.9961 12.1954 10.3074 12.6597 9.5298 12.9888C8.72437 13.3296 7.8811 13.5 7 13.5C6.1189 13.5 5.27563 13.3296 4.4702 12.9888C3.69257 12.6597 3.00393 12.1954 2.40426 11.5957C1.80459 10.9961 1.34024 10.3074 1.0112 9.5298C0.670402 8.72437 0.5 7.8811 0.5 7C0.5 6.1189 0.670402 5.27563 1.0112 4.4702C1.34024 3.69257 1.80459 3.00393 2.40426 2.40426C3.00393 1.80459 3.69257 1.34024 4.4702 1.0112C5.27563 0.670402 6.1189 0.5 7 0.5Z" fill="#9CA3AF"/>
<path fill-rule="evenodd" clip-rule="evenodd" d="M7 2.5C6.72386 2.5 6.5 2.72386 6.5 3V7.5C6.5 7.53283 6.5032 7.56535 6.50961 7.59754C6.51601 7.62974 6.5255 7.66101 6.53806 7.69134C6.55062 7.72167 6.56603 7.75049 6.58426 7.77778C6.6025 7.80508 6.62323 7.83034 6.64645 7.85355C6.66966 7.87677 6.69492 7.8975 6.72221 7.91573C6.74951 7.93397 6.77833 7.94937 6.80866 7.96194C6.83899 7.9745 6.87025 7.98398 6.90245 7.99039C6.93465 7.9968 6.96717 8 7 8H10C10.2761 8 10.5 7.77614 10.5 7.5C10.5 7.22386 10.2761 7 10 7H7.5V3C7.5 2.72386 7.27614 2.5 7 2.5Z" fill="#9CA3AF"/>
</svg>
