<svg width="24" height="25" viewBox="0 0 24 25" fill="none" xmlns="http://www.w3.org/2000/svg">
<g clip-path="url(#clip0_54_2397)">
<path fill-rule="evenodd" clip-rule="evenodd" d="M12.7073 16.2044C12.5198 16.3919 12.2655 16.4972 12.0003 16.4972C11.7352 16.4972 11.4809 16.3919 11.2933 16.2044L5.63634 10.5474C5.54083 10.4552 5.46465 10.3448 5.41224 10.2228C5.35983 10.1008 5.33225 9.96959 5.33109 9.83681C5.32994 9.70404 5.35524 9.57236 5.40552 9.44946C5.4558 9.32656 5.53006 9.21491 5.62395 9.12102C5.71784 9.02713 5.82949 8.95287 5.95239 8.90259C6.07529 8.85231 6.20696 8.82701 6.33974 8.82816C6.47252 8.82932 6.60374 8.8569 6.72575 8.90931C6.84775 8.96172 6.9581 9.0379 7.05034 9.13341L12.0003 14.0834L16.9503 9.13341C17.1389 8.95125 17.3915 8.85046 17.6537 8.85274C17.9159 8.85502 18.1668 8.96019 18.3522 9.14559C18.5376 9.331 18.6427 9.58182 18.645 9.84401C18.6473 10.1062 18.5465 10.3588 18.3643 10.5474L12.7073 16.2044Z" fill="#AEEA00"/>
</g>
<defs>
<clipPath id="clip0_54_2397">
<rect width="24" height="24" fill="white" transform="translate(0 0.5)"/>
</clipPath>
</defs>
</svg>
