<svg width="24" height="25" viewBox="0 0 24 25" fill="none" xmlns="http://www.w3.org/2000/svg">
<path d="M19.2701 5.58C17.9401 4.96 16.5001 4.51 15.0001 4.25C14.9737 4.25038 14.9486 4.26116 14.9301 4.28C14.7501 4.61 14.5401 5.04 14.4001 5.37C12.8091 5.13015 11.1911 5.13015 9.60012 5.37C9.46012 5.03 9.25012 4.61 9.06012 4.28C9.05012 4.26 9.02012 4.25 8.99012 4.25C7.49012 4.51 6.06012 4.96 4.72012 5.58C4.71012 5.58 4.70012 5.59 4.69012 5.6C1.97012 9.67 1.22012 13.63 1.59012 17.55C1.59012 17.57 1.60012 17.59 1.62012 17.6C3.42012 18.92 5.15012 19.72 6.86012 20.25C6.89012 20.26 6.92012 20.25 6.93012 20.23C7.33012 19.68 7.69012 19.1 8.00012 18.49C8.02012 18.45 8.00012 18.41 7.96012 18.4C7.39012 18.18 6.85012 17.92 6.32012 17.62C6.28012 17.6 6.28012 17.54 6.31012 17.51C6.42012 17.43 6.53012 17.34 6.64012 17.26C6.66012 17.24 6.69012 17.24 6.71012 17.25C10.1501 18.82 13.8601 18.82 17.2601 17.25C17.2801 17.24 17.3101 17.24 17.3301 17.26C17.4401 17.35 17.5501 17.43 17.6601 17.52C17.7001 17.55 17.7001 17.61 17.6501 17.63C17.1301 17.94 16.5801 18.19 16.0101 18.41C15.9701 18.42 15.9601 18.47 15.9701 18.5C16.2901 19.11 16.6501 19.69 17.0401 20.24C17.0701 20.25 17.1001 20.26 17.1301 20.25C18.8501 19.72 20.5801 18.92 22.3801 17.6C22.4001 17.59 22.4101 17.57 22.4101 17.55C22.8501 13.02 21.6801 9.09 19.3101 5.6C19.3001 5.59 19.2901 5.58 19.2701 5.58ZM8.52012 15.16C7.49012 15.16 6.63012 14.21 6.63012 13.04C6.63012 11.87 7.47012 10.92 8.52012 10.92C9.58012 10.92 10.4201 11.88 10.4101 13.04C10.4101 14.21 9.57012 15.16 8.52012 15.16ZM15.4901 15.16C14.4601 15.16 13.6001 14.21 13.6001 13.04C13.6001 11.87 14.4401 10.92 15.4901 10.92C16.5501 10.92 17.3901 11.88 17.3801 13.04C17.3801 14.21 16.5501 15.16 15.4901 15.16Z" fill="#1E1E1E"/>
</svg>
