<svg width="20" height="20" viewBox="0 0 20 20" fill="none" xmlns="http://www.w3.org/2000/svg">
<path d="M2.72989 12.7451C2.02161 11.8249 1.66748 11.3649 1.66748 9.9987C1.66748 8.63253 2.02161 8.17247 2.72989 7.25231C4.14411 5.415 6.51591 3.33203 10.0008 3.33203C13.4857 3.33203 15.8575 5.415 17.2717 7.25231C17.98 8.17247 18.3341 8.63253 18.3341 9.9987C18.3341 11.3649 17.98 11.8249 17.2717 12.7451C15.8575 14.5824 13.4857 16.6654 10.0008 16.6654C6.51591 16.6654 4.14411 14.5824 2.72989 12.7451Z" stroke="#1C274C" stroke-width="1.25"/>
<path d="M12.5007 10C12.5007 11.3807 11.3815 12.5 10.0007 12.5C8.61998 12.5 7.50073 11.3807 7.50073 10C7.50073 8.61925 8.61998 7.5 10.0007 7.5C11.3815 7.5 12.5007 8.61925 12.5007 10Z" stroke="#1C274C" stroke-width="1.25"/>
</svg>
