<svg width="72" height="73" viewBox="0 0 72 73" fill="none" xmlns="http://www.w3.org/2000/svg">
<rect y="0.5" width="72" height="72" rx="36" fill="#AEEA00"/>
<path d="M36 21.5182V36.001C36 36.3325 35.8683 36.6504 35.6339 36.8849C35.3995 37.1193 35.0815 37.251 34.75 37.251C34.4185 37.251 34.1005 37.1193 33.8661 36.8849C33.6317 36.6504 33.5 36.3325 33.5 36.001V21.5182L30.6344 24.3854C30.3998 24.6199 30.0817 24.7517 29.75 24.7517C29.4183 24.7517 29.1002 24.6199 28.8656 24.3854C28.6311 24.1508 28.4993 23.8327 28.4993 23.501C28.4993 23.1693 28.6311 22.8512 28.8656 22.6166L33.8656 17.6166C33.9817 17.5004 34.1196 17.4082 34.2713 17.3453C34.4231 17.2824 34.5857 17.25 34.75 17.25C34.9143 17.25 35.0769 17.2824 35.2287 17.3453C35.3804 17.4082 35.5183 17.5004 35.6344 17.6166L40.6344 22.6166C40.8689 22.8512 41.0007 23.1693 41.0007 23.501C41.0007 23.8327 40.8689 24.1508 40.6344 24.3854C40.3998 24.6199 40.0817 24.7517 39.75 24.7517C39.4183 24.7517 39.1002 24.6199 38.8656 24.3854L36 21.5182ZM46 35.3166V31.001C46 30.3379 45.7366 29.7021 45.2678 29.2332C44.7989 28.7644 44.163 28.501 43.5 28.501H41C40.6685 28.501 40.3505 28.6327 40.1161 28.8671C39.8817 29.1015 39.75 29.4195 39.75 29.751C39.75 30.0825 39.8817 30.4004 40.1161 30.6349C40.3505 30.8693 40.6685 31.001 41 31.001H43.5V43.5635C42.7546 42.802 41.7568 42.3387 40.694 42.2607C39.6313 42.1826 38.5766 42.4951 37.7279 43.1396C36.8792 43.784 36.2949 44.716 36.0846 45.7607C35.8744 46.8054 36.0526 47.8909 36.5859 48.8135L36.6234 48.8729L40.1016 54.1854C40.2831 54.4628 40.5674 54.6568 40.8919 54.7246C41.2164 54.7924 41.5546 54.7286 41.832 54.5471C42.1095 54.3656 42.3034 54.0813 42.3713 53.7568C42.4391 53.4322 42.3753 53.094 42.1938 52.8166L38.7359 47.5369C38.4908 47.1041 38.4277 46.5916 38.5604 46.1122C38.6932 45.6328 39.0109 45.2258 39.4437 44.9807C39.8766 44.7356 40.3891 44.6724 40.8685 44.8052C41.3479 44.9379 41.7549 45.2556 42 45.6885C42.0109 45.7088 42.0234 45.7291 42.0359 45.7479L43.7047 48.2963C43.8522 48.5212 44.0683 48.6926 44.321 48.7849C44.5737 48.8773 44.8494 48.8856 45.1072 48.8087C45.365 48.7319 45.5911 48.5739 45.7519 48.3583C45.9128 48.1427 45.9998 47.8809 46 47.6119V38.501C47.1782 39.5916 48.1192 40.9132 48.7644 42.3834C49.4095 43.8535 49.745 45.4408 49.75 47.0463V53.501C49.75 53.8325 49.8817 54.1504 50.1161 54.3849C50.3505 54.6193 50.6685 54.751 51 54.751C51.3315 54.751 51.6495 54.6193 51.8839 54.3849C52.1183 54.1504 52.25 53.8325 52.25 53.501V47.04C52.2429 44.7245 51.6698 42.4458 50.5804 40.4024C49.4911 38.3591 47.9186 36.6131 46 35.3166ZM28.5 28.501H26C25.337 28.501 24.7011 28.7644 24.2322 29.2332C23.7634 29.7021 23.5 30.3379 23.5 31.001V47.251C23.5 47.5825 23.6317 47.9004 23.8661 48.1349C24.1005 48.3693 24.4185 48.501 24.75 48.501C25.0815 48.501 25.3995 48.3693 25.6339 48.1349C25.8683 47.9004 26 47.5825 26 47.251V31.001H28.5C28.8315 31.001 29.1495 30.8693 29.3839 30.6349C29.6183 30.4004 29.75 30.0825 29.75 29.751C29.75 29.4195 29.6183 29.1015 29.3839 28.8671C29.1495 28.6327 28.8315 28.501 28.5 28.501Z" fill="black"/>
</svg>
