<svg width="20" height="20" viewBox="0 0 20 20" fill="none" xmlns="http://www.w3.org/2000/svg">
<g clip-path="url(#clip0_66_192)">
<path fill-rule="evenodd" clip-rule="evenodd" d="M4.30451 9.99952C4.30451 9.36441 4.40999 8.75552 4.59826 8.18441L1.30292 5.66797C0.660675 6.97197 0.298828 8.4413 0.298828 9.99952C0.298828 11.5564 0.66023 13.0249 1.30158 14.328L4.59514 11.8066C4.40866 11.2382 4.30451 10.6315 4.30451 9.99952Z" fill="#FBBC05"/>
<path fill-rule="evenodd" clip-rule="evenodd" d="M10.0903 4.22266C11.47 4.22266 12.7163 4.71154 13.6954 5.51155L16.5439 2.6671C14.8081 1.15599 12.5827 0.222656 10.0903 0.222656C6.22082 0.222656 2.89522 2.43555 1.30273 5.66888L4.59808 8.18532C5.35737 5.88043 7.52178 4.22266 10.0903 4.22266Z" fill="#EB4335"/>
<path fill-rule="evenodd" clip-rule="evenodd" d="M10.0903 15.7752C7.52178 15.7752 5.35737 14.1174 4.59808 11.8125L1.30273 14.3285C2.89522 17.5623 6.22082 19.7752 10.0903 19.7752C12.4786 19.7752 14.7587 18.9272 16.47 17.3383L13.342 14.9201C12.4594 15.4761 11.3481 15.7752 10.0903 15.7752Z" fill="#34A853"/>
<path fill-rule="evenodd" clip-rule="evenodd" d="M19.4364 10.0004C19.4364 9.42266 19.3474 8.80043 19.2139 8.22266H10.0898V12.0004H15.3417C15.0791 13.2884 14.3644 14.2787 13.3416 14.9231L16.4696 17.3413C18.2672 15.6729 19.4364 13.1875 19.4364 10.0004Z" fill="#4285F4"/>
</g>
<defs>
<clipPath id="clip0_66_192">
<rect width="20" height="20" fill="white"/>
</clipPath>
</defs>
</svg>
