<svg width="28" height="28" viewBox="0 0 28 28" fill="none" xmlns="http://www.w3.org/2000/svg">
<path d="M12.8333 10.4987H15.1666V8.16537H12.8333M13.9999 23.332C8.85492 23.332 4.66659 19.1437 4.66659 13.9987C4.66659 8.8537 8.85492 4.66536 13.9999 4.66536C19.1449 4.66536 23.3333 8.8537 23.3333 13.9987C23.3333 19.1437 19.1449 23.332 13.9999 23.332ZM13.9999 2.33203C12.4678 2.33203 10.9507 2.6338 9.53528 3.2201C8.11981 3.80641 6.83369 4.66577 5.75034 5.74912C3.56242 7.93704 2.33325 10.9045 2.33325 13.9987C2.33325 17.0929 3.56242 20.0604 5.75034 22.2483C6.83369 23.3316 8.11981 24.191 9.53528 24.7773C10.9507 25.3636 12.4678 25.6654 13.9999 25.6654C17.0941 25.6654 20.0616 24.4362 22.2495 22.2483C24.4374 20.0604 25.6666 17.0929 25.6666 13.9987C25.6666 12.4666 25.3648 10.9495 24.7785 9.53406C24.1922 8.11859 23.3328 6.83247 22.2495 5.74912C21.1661 4.66577 19.88 3.80641 18.4646 3.2201C17.0491 2.6338 15.532 2.33203 13.9999 2.33203ZM12.8333 19.832H15.1666V12.832H12.8333V19.832Z" fill="black"/>
</svg>
