<svg width="28" height="29" viewBox="0 0 28 29" fill="none" xmlns="http://www.w3.org/2000/svg">
<path d="M12.8335 10.9987H15.1668V8.66537H12.8335M14.0002 23.832C8.85516 23.832 4.66683 19.6437 4.66683 14.4987C4.66683 9.3537 8.85516 5.16536 14.0002 5.16536C19.1452 5.16536 23.3335 9.3537 23.3335 14.4987C23.3335 19.6437 19.1452 23.832 14.0002 23.832ZM14.0002 2.83203C12.4681 2.83203 10.951 3.1338 9.53552 3.7201C8.12006 4.30641 6.83393 5.16577 5.75058 6.24912C3.56266 8.43704 2.3335 11.4045 2.3335 14.4987C2.3335 17.5929 3.56266 20.5604 5.75058 22.7483C6.83393 23.8316 8.12006 24.691 9.53552 25.2773C10.951 25.8636 12.4681 26.1654 14.0002 26.1654C17.0944 26.1654 20.0618 24.9362 22.2497 22.7483C24.4377 20.5604 25.6668 17.5929 25.6668 14.4987C25.6668 12.9666 25.3651 11.4495 24.7788 10.0341C24.1925 8.61859 23.3331 7.33247 22.2497 6.24912C21.1664 5.16577 19.8803 4.30641 18.4648 3.7201C17.0493 3.1338 15.5323 2.83203 14.0002 2.83203ZM12.8335 20.332H15.1668V13.332H12.8335V20.332Z" fill="#F9FAFB"/>
</svg>
