<svg width="24" height="25" viewBox="0 0 24 25" fill="none" xmlns="http://www.w3.org/2000/svg">
<path d="M6.93945 5.251C6.93919 5.78143 6.72822 6.29004 6.35296 6.66492C5.9777 7.03981 5.46889 7.25027 4.93845 7.25C4.40802 7.24974 3.89942 7.03877 3.52453 6.66351C3.14965 6.28825 2.93919 5.77943 2.93945 5.249C2.93972 4.71857 3.15069 4.20996 3.52595 3.83508C3.90121 3.46019 4.41002 3.24974 4.94045 3.25C5.47089 3.25027 5.97949 3.46123 6.35437 3.83649C6.72926 4.21175 6.93972 4.72057 6.93945 5.251ZM6.99945 8.731H2.99945V21.251H6.99945V8.731ZM13.3195 8.731H9.33945V21.251H13.2795V14.681C13.2795 11.021 18.0495 10.681 18.0495 14.681V21.251H21.9995V13.321C21.9995 7.151 14.9395 7.381 13.2795 10.411L13.3195 8.731Z" fill="#1E1E1E"/>
</svg>
