<svg width="40" height="40" viewBox="0 0 40 40" fill="none" xmlns="http://www.w3.org/2000/svg">
<path d="M29.2063 12.329C31.3031 11.8633 34.0344 9.78209 34.45 8.75709C34.6937 8.15709 33.4781 7.21959 33.1531 6.84146C32.4094 5.97896 32.7094 5.55396 32.9969 4.52584C33.325 3.35709 32.5469 2.06646 31.4438 1.56021C30.3406 1.05396 29.0219 1.21334 27.9125 1.70709C26.8031 2.20084 25.8562 2.99459 24.9281 3.77584C24.25 3.34771 23.1688 1.45709 21.4188 2.68521C20.2094 3.53209 20.1 5.37584 20.2563 6.84771C20.6219 10.2446 21.4594 12.0071 23.0375 12.4821C25.0313 13.0821 27.2375 12.7665 29.2063 12.329Z" fill="#AEEA00"/>
<path d="M32.6125 2.55469C32.3469 7.13281 27.8812 10.1703 25.7625 11.5078L27.1375 12.6891C27.1375 12.6891 28.0094 12.7078 29.2031 12.3266C31.25 11.6766 34.2406 9.83906 34.4469 8.75469C34.75 7.17656 33.1312 7.52031 32.7656 6.27344C32.575 5.61406 33.6937 4.36719 32.6125 2.55469ZM24.9312 3.77656C24.9312 3.77656 24.1344 2.96094 23.5437 2.58906C23.25 3.14219 23.0406 3.74219 22.9375 4.36094C22.7531 5.44844 22.9375 6.99219 23.3719 8.14219C23.4406 8.32031 23.6969 8.29219 23.725 8.10469C24.1 5.63281 24.9312 3.77656 24.9312 3.77656Z" fill="#1E1E1E"/>
<path d="M19.3625 11.9264C19.3625 11.9264 9.61563 12.9795 5.21875 21.442C0.821876 29.9045 4.55938 35.0358 8.51562 36.9045C12.4719 38.7733 22.4406 39.4326 28.925 37.8951C35.4094 36.3576 37.0312 33.1701 36.7281 30.092C36.2875 25.5983 32.1125 22.8358 32.1125 22.8358C32.1125 22.8358 32.2781 17.2858 27.9719 13.6826C24.15 10.4826 19.3625 11.9264 19.3625 11.9264Z" fill="#AEEA00"/>
<path d="M23.3625 26.1649C21.2719 23.5274 18.8031 23.1743 18.0125 22.2274C17.5813 21.7118 17.3281 21.1899 17.425 20.5431C17.5281 19.8556 18.325 19.3806 18.9438 19.2649C19.6656 19.1274 21.3875 19.1993 22.8344 20.5774C23.1781 20.9024 23.0531 21.4087 23.0438 21.8618C23.0188 22.8337 24.4094 23.7774 25.5344 22.9649C26.6625 22.1493 25.7969 20.3337 25.0688 19.4524C24.5188 18.7868 22.525 17.3212 20.0469 17.0899C19.35 17.0243 16.5469 16.6087 14.9281 19.6868C14.4625 20.5712 14.2906 22.7087 16.7281 24.5149C17.2375 24.8931 19.8813 26.2368 20.6156 27.1087C21.8875 28.6181 21.0156 29.9462 20.0219 30.1212C17.3125 30.5962 15.7781 29.1306 15.4938 28.3274C15.2906 27.7556 15.5031 27.1368 15.2406 26.5993C14.9719 26.0462 14.4219 25.8274 13.8406 26.0118C11.9344 26.6181 12.5406 28.7024 13.3844 29.8493C14.2875 31.0774 15.3969 31.8181 16.6438 32.2243C21.2969 33.7399 23.5344 31.3462 23.925 29.5931C24.2125 28.3087 24.1813 27.1962 23.3625 26.1649Z" fill="#1E1E1E"/>
<path d="M22.2375 15.3086C18.2781 23.7648 17.5969 34.443 17.5969 34.443" stroke="#1E1E1E" stroke-width="0.625" stroke-miterlimit="10"/>
<path d="M25.5219 9.98767C28.1594 10.847 28.7438 13.2314 28.5531 13.8814C28.325 14.6439 25.4031 11.6752 21.0594 11.8533C19.5406 11.9158 19.9812 10.9845 20.6844 10.447C21.6125 9.73767 23.1719 9.22517 25.5219 9.98767Z" fill="#1E1E1E"/>
<path d="M25.5219 9.98767C28.1594 10.847 28.7438 13.2314 28.5531 13.8814C28.325 14.6439 25.4031 11.6752 21.0594 11.8533C19.5406 11.9158 19.9812 10.9845 20.6844 10.447C21.6125 9.73767 23.1719 9.22517 25.5219 9.98767Z" fill="#1E1E1E"/>
<path d="M30.1531 18.3929C30.4844 18.1648 31.5969 18.5585 31.9094 20.7367C32.0625 21.8023 32.1094 22.8335 32.1094 22.8335C32.1094 22.8335 30.7969 21.6554 30.3625 20.8273C29.8156 19.7804 29.6031 18.7679 30.1531 18.3929Z" fill="#1E1E1E"/>
</svg>
