<svg width="41" height="40" viewBox="0 0 41 40" fill="none" xmlns="http://www.w3.org/2000/svg">
<path d="M7.16634 30H10.4997V36.8017L19.0013 30H27.1663C29.0047 30 30.4997 28.505 30.4997 26.6667V13.3333C30.4997 11.495 29.0047 10 27.1663 10H7.16634C5.32801 10 3.83301 11.495 3.83301 13.3333V26.6667C3.83301 28.505 5.32801 30 7.16634 30Z" fill="#AEEA00"/>
<path d="M33.8333 3.33594H13.8333C11.995 3.33594 10.5 4.83094 10.5 6.66927H30.5C32.3383 6.66927 33.8333 8.16427 33.8333 10.0026V23.3359C35.6717 23.3359 37.1667 21.8409 37.1667 20.0026V6.66927C37.1667 4.83094 35.6717 3.33594 33.8333 3.33594Z" fill="#AEEA00"/>
</svg>
