<svg width="16" height="17" viewBox="0 0 16 17" fill="none" xmlns="http://www.w3.org/2000/svg">
<path d="M13.7525 11.1659C13.7006 11.1034 13.6497 11.0409 13.5997 10.9806C12.9122 10.1491 12.4963 9.64719 12.4963 7.29313C12.4963 6.07438 12.2047 5.07437 11.63 4.32437C11.2063 3.77031 10.6334 3.35 9.87845 3.03938C9.86873 3.03397 9.86006 3.02688 9.85282 3.01844C9.58126 2.10906 8.83814 1.5 8.00001 1.5C7.16189 1.5 6.41907 2.10906 6.14751 3.0175C6.14028 3.02565 6.13172 3.03251 6.1222 3.03781C4.36032 3.76312 3.50407 5.15469 3.50407 7.29219C3.50407 9.64719 3.08876 10.1491 2.40064 10.9797C2.35064 11.04 2.2997 11.1012 2.24782 11.165C2.11382 11.3266 2.02892 11.5232 2.00317 11.7316C1.97742 11.9399 2.01189 12.1513 2.10251 12.3406C2.29532 12.7469 2.70626 12.9991 3.17532 12.9991H12.8281C13.295 12.9991 13.7031 12.7472 13.8966 12.3428C13.9876 12.1534 14.0224 11.9419 13.9969 11.7333C13.9713 11.5247 13.8865 11.3278 13.7525 11.1659ZM8.00001 15.5C8.45158 15.4996 8.89464 15.3771 9.28219 15.1453C9.66973 14.9135 9.98732 14.5811 10.2013 14.1834C10.2113 14.1644 10.2163 14.143 10.2157 14.1215C10.2151 14.0999 10.2089 14.0789 10.1978 14.0604C10.1867 14.042 10.1709 14.0267 10.1522 14.0161C10.1334 14.0055 10.1122 14 10.0906 14H5.91001C5.88843 13.9999 5.86719 14.0054 5.84837 14.016C5.82955 14.0266 5.81378 14.0418 5.80261 14.0603C5.79144 14.0788 5.78524 14.0998 5.78462 14.1214C5.784 14.143 5.78898 14.1644 5.79907 14.1834C6.01299 14.5811 6.33053 14.9134 6.71801 15.1452C7.1055 15.377 7.54849 15.4996 8.00001 15.5Z" fill="#1E1E1E"/>
</svg>
