<svg width="49" height="49" viewBox="0 0 49 49" fill="none" xmlns="http://www.w3.org/2000/svg">
<rect x="0.625" y="0.375" width="48" height="48" rx="24" fill="#AEEA00"/>
<rect x="0.625" y="0.375" width="48" height="48" rx="24" stroke="url(#paint0_linear_2013_13)" stroke-width="0.75"/>
<g clip-path="url(#clip0_2013_13)">
<path d="M26.195 29.5797L31 24.7497L26.195 19.9197C26.1516 19.8627 26.0965 19.8158 26.0333 19.7819C25.9702 19.7481 25.9005 19.7282 25.829 19.7237C25.7576 19.7191 25.6859 19.73 25.619 19.7555C25.5521 19.781 25.4914 19.8206 25.4411 19.8716C25.3909 19.9226 25.3521 19.9839 25.3275 20.0511C25.303 20.1184 25.2931 20.1902 25.2987 20.2616C25.3043 20.333 25.3252 20.4024 25.3599 20.4651C25.3946 20.5277 25.4424 20.5822 25.5 20.6247L29.095 24.2497H19.53C19.3974 24.2497 19.2702 24.3024 19.1764 24.3962C19.0827 24.4899 19.03 24.6171 19.03 24.7497C19.03 24.8823 19.0827 25.0095 19.1764 25.1033C19.2702 25.1971 19.3974 25.2497 19.53 25.2497H29.095L25.5 28.8747C25.4065 28.9689 25.3543 29.0963 25.3547 29.229C25.3552 29.3617 25.4083 29.4887 25.5025 29.5822C25.5967 29.6757 25.7241 29.728 25.8568 29.7275C25.9894 29.727 26.1165 29.6739 26.21 29.5797H26.195Z" fill="#202020"/>
</g>
<defs>
<linearGradient id="paint0_linear_2013_13" x1="24.625" y1="0" x2="24.625" y2="48.75" gradientUnits="userSpaceOnUse">
<stop stop-color="#D4D4D4"/>
<stop offset="1" stop-color="#D4D3D3"/>
</linearGradient>
<clipPath id="clip0_2013_13">
<rect width="18" height="18" fill="white" transform="matrix(0 1 -1 0 34 15.75)"/>
</clipPath>
</defs>
</svg>
