<svg width="40" height="40" viewBox="0 0 40 40" fill="none" xmlns="http://www.w3.org/2000/svg">
<path d="M3.33301 15C3.33301 19.4203 5.08896 23.6595 8.21456 26.7851C11.3402 29.9107 15.5794 31.6667 19.9997 31.6667C24.4199 31.6667 28.6592 29.9107 31.7848 26.7851C34.9104 23.6595 36.6663 19.4203 36.6663 15" stroke="black" stroke-width="2" stroke-linecap="round" stroke-linejoin="round"/>
<path d="M36.6663 15C32.2461 15 28.0068 16.7559 24.8812 19.8816C21.7556 23.0072 19.9997 27.2464 19.9997 31.6667C19.9997 29.478 19.5686 27.3107 18.731 25.2886C17.8934 23.2665 16.6658 21.4292 15.1181 19.8816C13.5705 18.3339 11.7332 17.1063 9.71106 16.2687C7.68897 15.4311 5.52171 15 3.33301 15" stroke="black" stroke-width="2" stroke-linecap="round" stroke-linejoin="round"/>
<path d="M24.9829 19.1641C25.0987 16.8449 24.7135 14.5279 23.8536 12.3709C22.9937 10.2139 21.6792 8.26749 19.9995 6.66406C18.3199 8.26749 17.0054 10.2139 16.1455 12.3709C15.2856 14.5279 14.9004 16.8449 15.0162 19.1641" stroke="black" stroke-width="2" stroke-linecap="round" stroke-linejoin="round"/>
</svg>
