<svg width="50" height="49" viewBox="0 0 50 49" fill="none" xmlns="http://www.w3.org/2000/svg">
<rect x="0.875" y="0.375" width="48" height="48" rx="24" fill="white"/>
<rect x="0.875" y="0.375" width="48" height="48" rx="24" stroke="url(#paint0_linear_2013_9)" stroke-width="0.75"/>
<g clip-path="url(#clip0_2013_9)">
<path d="M24.055 19.9203L19.25 24.7503L24.055 29.5803C24.0984 29.6373 24.1535 29.6842 24.2167 29.7181C24.2798 29.7519 24.3495 29.7718 24.421 29.7763C24.4924 29.7809 24.5641 29.77 24.631 29.7445C24.6979 29.719 24.7586 29.6794 24.8089 29.6284C24.8591 29.5774 24.8979 29.5161 24.9225 29.4489C24.947 29.3816 24.9569 29.3098 24.9513 29.2384C24.9457 29.167 24.9248 29.0976 24.8901 29.0349C24.8554 28.9723 24.8076 28.9178 24.75 28.8753L21.155 25.2503H30.72C30.8526 25.2503 30.9798 25.1976 31.0736 25.1038C31.1673 25.0101 31.22 24.8829 31.22 24.7503C31.22 24.6177 31.1673 24.4905 31.0736 24.3967C30.9798 24.3029 30.8526 24.2503 30.72 24.2503H21.155L24.75 20.6253C24.8435 20.5311 24.8957 20.4037 24.8953 20.271C24.8948 20.1383 24.8417 20.0113 24.7475 19.9178C24.6533 19.8243 24.5259 19.772 24.3932 19.7725C24.2606 19.773 24.1335 19.8261 24.04 19.9203H24.055Z" fill="#A6A6A6"/>
</g>
<defs>
<linearGradient id="paint0_linear_2013_9" x1="24.875" y1="0" x2="24.875" y2="48.75" gradientUnits="userSpaceOnUse">
<stop stop-color="#F0F0F0"/>
<stop offset="1" stop-color="#E8E7E7"/>
</linearGradient>
<clipPath id="clip0_2013_9">
<rect width="18" height="18" fill="white" transform="matrix(0 -1 1 0 16.25 33.75)"/>
</clipPath>
</defs>
</svg>
