<svg width="32" height="32" viewBox="0 0 32 32" fill="none" xmlns="http://www.w3.org/2000/svg">
<g clip-path="url(#clip0_60_370)">
<path d="M19.2927 22.041C19.1054 21.8535 19.0002 21.5993 19.0002 21.3343C19.0002 21.0693 19.1054 20.8151 19.2927 20.6276L22.9193 17.001H6.66602C6.4008 17.001 6.14645 16.8956 5.95891 16.7081C5.77137 16.5205 5.66602 16.2662 5.66602 16.001C5.66602 15.7357 5.77137 15.4814 5.95891 15.2938C6.14645 15.1063 6.4008 15.001 6.66602 15.001H22.9167L19.2927 11.3756C19.1998 11.2827 19.1261 11.1725 19.0758 11.0511C19.0256 10.9297 18.9997 10.7997 18.9997 10.6683C18.9997 10.403 19.1051 10.1486 19.2927 9.96096C19.4803 9.77336 19.7347 9.66797 20 9.66797C20.2653 9.66797 20.5198 9.77336 20.7073 9.96096L26.0407 15.2943C26.1336 15.387 26.2073 15.4972 26.2575 15.6185C26.3078 15.7397 26.3337 15.8697 26.3337 16.001C26.3337 16.1322 26.3078 16.2622 26.2575 16.3835C26.2073 16.5047 26.1336 16.6149 26.0407 16.7076L20.7073 22.041C20.6145 22.1339 20.5042 22.2076 20.3828 22.2579C20.2615 22.3082 20.1314 22.3341 20 22.3341C19.8686 22.3341 19.7386 22.3082 19.6172 22.2579C19.4958 22.2076 19.3855 22.1339 19.2927 22.041Z" fill="#525252"/>
</g>
<defs>
<clipPath id="clip0_60_370">
<rect width="32" height="32" fill="white"/>
</clipPath>
</defs>
</svg>
