<svg width="16" height="11" viewBox="0 0 16 11" fill="none" xmlns="http://www.w3.org/2000/svg">
<path d="M10.469 10.0297C10.3286 9.88912 10.2497 9.69849 10.2497 9.49974C10.2497 9.30099 10.3286 9.11037 10.469 8.96974L13.189 6.24974H0.999023C0.800111 6.24974 0.609346 6.17072 0.468693 6.03007C0.328041 5.88942 0.249023 5.69865 0.249023 5.49974C0.249023 5.30083 0.328041 5.11006 0.468693 4.96941C0.609346 4.82876 0.800111 4.74974 0.999023 4.74974H13.187L10.469 2.03074C10.3994 1.96107 10.3441 1.87837 10.3064 1.78734C10.2687 1.69632 10.2493 1.59876 10.2493 1.50024C10.2493 1.30126 10.3283 1.11044 10.469 0.96974C10.6097 0.829043 10.8005 0.75 10.9995 0.75C11.1985 0.75 11.3893 0.829043 11.53 0.96974L15.53 4.96974C15.5997 5.0393 15.655 5.12192 15.6927 5.21286C15.7304 5.30381 15.7498 5.40129 15.7498 5.49974C15.7498 5.59819 15.7304 5.69567 15.6927 5.78662C15.655 5.87756 15.5997 5.96018 15.53 6.02974L11.53 10.0297C11.4604 10.0994 11.3777 10.1547 11.2866 10.1924C11.1956 10.2302 11.0981 10.2496 10.9995 10.2496C10.901 10.2496 10.8034 10.2302 10.7124 10.1924C10.6214 10.1547 10.5387 10.0994 10.469 10.0297Z" fill="#AEEA00"/>
</svg>
