<svg width="41" height="40" viewBox="0 0 41 40" fill="none" xmlns="http://www.w3.org/2000/svg">
<path d="M5.5 10.4167C5.5 8.98008 6.07068 7.60233 7.0865 6.5865C8.10233 5.57068 9.48008 5 10.9167 5H30.0833C31.5199 5 32.8977 5.57068 33.9135 6.5865C34.9293 7.60233 35.5 8.98008 35.5 10.4167V29.5833C35.5 31.0199 34.9293 32.3977 33.9135 33.4135C32.8977 34.4293 31.5199 35 30.0833 35H10.9167C9.48008 35 8.10233 34.4293 7.0865 33.4135C6.07068 32.3977 5.5 31.0199 5.5 29.5833V10.4167ZM21.3333 15.4167C21.3333 16.1067 21.8933 16.6667 22.5833 16.6667H28.4167C28.7482 16.6667 29.0661 16.535 29.3006 16.3005C29.535 16.0661 29.6667 15.7482 29.6667 15.4167C29.6667 15.0851 29.535 14.7672 29.3006 14.5328C29.0661 14.2984 28.7482 14.1667 28.4167 14.1667H22.5833C22.2518 14.1667 21.9339 14.2984 21.6994 14.5328C21.465 14.7672 21.3333 15.0851 21.3333 15.4167ZM22.5833 23.3333C22.2518 23.3333 21.9339 23.465 21.6994 23.6994C21.465 23.9339 21.3333 24.2518 21.3333 24.5833C21.3333 24.9149 21.465 25.2328 21.6994 25.4672C21.9339 25.7016 22.2518 25.8333 22.5833 25.8333H28.4167C28.7482 25.8333 29.0661 25.7016 29.3006 25.4672C29.535 25.2328 29.6667 24.9149 29.6667 24.5833C29.6667 24.2518 29.535 23.9339 29.3006 23.6994C29.0661 23.465 28.7482 23.3333 28.4167 23.3333H22.5833ZM18.4667 14.6333C18.5895 14.5189 18.688 14.3809 18.7563 14.2276C18.8246 14.0742 18.8614 13.9087 18.8643 13.7409C18.8673 13.573 18.8364 13.4063 18.7735 13.2507C18.7107 13.095 18.6171 12.9536 18.4984 12.8349C18.3797 12.7162 18.2383 12.6227 18.0827 12.5598C17.927 12.4969 17.7603 12.4661 17.5925 12.469C17.4246 12.472 17.2591 12.5087 17.1058 12.577C16.9524 12.6454 16.8144 12.7439 16.7 12.8667L14.25 15.3167L13.4667 14.5333C13.2297 14.3125 12.9163 14.1923 12.5925 14.198C12.2686 14.2038 11.9597 14.3349 11.7306 14.564C11.5016 14.793 11.3704 15.102 11.3647 15.4258C11.359 15.7496 11.4792 16.063 11.7 16.3L13.3667 17.9667C13.601 18.2008 13.9187 18.3322 14.25 18.3322C14.5813 18.3322 14.899 18.2008 15.1333 17.9667L18.4667 14.6333ZM18.4667 22.0333C18.2323 21.7992 17.9146 21.6678 17.5833 21.6678C17.2521 21.6678 16.9344 21.7992 16.7 22.0333L14.25 24.4833L13.4667 23.7C13.2297 23.4792 12.9163 23.359 12.5925 23.3647C12.2686 23.3704 11.9597 23.5016 11.7306 23.7306C11.5016 23.9597 11.3704 24.2686 11.3647 24.5925C11.359 24.9163 11.4792 25.2297 11.7 25.4667L13.3667 27.1333C13.601 27.3674 13.9187 27.4989 14.25 27.4989C14.5813 27.4989 14.899 27.3674 15.1333 27.1333L18.4667 23.8C18.7008 23.5656 18.8322 23.2479 18.8322 22.9167C18.8322 22.5854 18.7008 22.2677 18.4667 22.0333Z" fill="#AEEA00"/>
</svg>
