<svg width="72" height="73" viewBox="0 0 72 73" fill="none" xmlns="http://www.w3.org/2000/svg">
<rect y="0.5" width="72" height="72" rx="36" fill="#AEEA00"/>
<path d="M19.3334 23.6667V31.6667C19.3334 33.1667 20.1667 34.3333 21.3334 34.3333H50.8334C51.8334 34.3333 52.8334 33.1667 52.8334 31.6667V23.6667C52.6667 22.1667 51.8334 21 50.6667 21H21.3334C20.1667 21 19.3334 22.1667 19.3334 23.6667ZM32.6667 29.3333V26H31V29.3333H32.6667ZM24.3334 29.3333H27.6667V26H24.3334V29.3333ZM49.3334 31H22.6667V24.3333H49.3334V31ZM19.3334 40.3333V48.3333C19.3334 49.8333 20.1667 51 21.3334 51H50.8334C51.8334 51 52.8334 49.8333 52.8334 48.3333V40.3333C52.8334 38.8333 52 37.6667 50.8334 37.6667H21.3334C20.1667 37.6667 19.3334 38.8333 19.3334 40.3333ZM32.6667 46V42.6667H31V46H32.6667ZM24.3334 46H27.6667V42.6667H24.3334V46ZM49.3334 47.6667H22.6667V41H49.3334V47.6667Z" fill="black"/>
</svg>
