<svg width="40" height="40" viewBox="0 0 40 40" fill="none" xmlns="http://www.w3.org/2000/svg">
<path d="M10 12.5H13.3333M10 27.5H13.3333M5 9.5C5 8.395 5.74667 7.5 6.66667 7.5H33.3333C34.2533 7.5 35 8.395 35 9.5V15.5C35 16.605 34.2533 17.5 33.3333 17.5H6.66667C5.74667 17.5 5 16.605 5 15.5V9.5ZM5 24.5C5 23.395 5.74667 22.5 6.66667 22.5H33.3333C34.2533 22.5 35 23.395 35 24.5V30.5C35 31.605 34.2533 32.5 33.3333 32.5H6.66667C5.74667 32.5 5 31.605 5 30.5V24.5Z" stroke="black" stroke-width="1.5" stroke-linecap="round" stroke-linejoin="round"/>
</svg>
