<svg width="40" height="40" viewBox="0 0 40 40" fill="none" xmlns="http://www.w3.org/2000/svg">
<path d="M10 13H13.3333M10 28H13.3333M5 10C5 8.895 5.74667 8 6.66667 8H33.3333C34.2533 8 35 8.895 35 10V16C35 17.105 34.2533 18 33.3333 18H6.66667C5.74667 18 5 17.105 5 16V10ZM5 25C5 23.895 5.74667 23 6.66667 23H33.3333C34.2533 23 35 23.895 35 25V31C35 32.105 34.2533 33 33.3333 33H6.66667C5.74667 33 5 32.105 5 31V25Z" stroke="#AEEA00" stroke-width="1.5" stroke-linecap="round" stroke-linejoin="round"/>
</svg>
