<svg width="40" height="40" viewBox="0 0 40 40" fill="none" xmlns="http://www.w3.org/2000/svg">
<path fill-rule="evenodd" clip-rule="evenodd" d="M8.33342 1.66797C6.5653 1.66797 4.86961 2.37035 3.61937 3.62059C2.36913 4.87083 1.66675 6.56653 1.66675 8.33464V31.668C1.66675 33.4361 2.36913 35.1318 3.61937 36.382C4.86961 37.6323 6.5653 38.3346 8.33342 38.3346H31.6667C33.4349 38.3346 35.1306 37.6323 36.3808 36.382C37.631 35.1318 38.3334 33.4361 38.3334 31.668V8.33464C38.3334 6.56653 37.631 4.87083 36.3808 3.62059C35.1306 2.37035 33.4349 1.66797 31.6667 1.66797H8.33342ZM21.1367 7.5013C18.8034 7.5013 16.5067 7.99297 14.7451 9.4013C12.8751 10.898 12.0451 13.0696 12.0451 15.4563C12.0451 17.9063 13.3634 19.5646 14.8217 20.618C16.0801 21.528 17.6551 22.138 18.8234 22.5913L18.9701 22.6496C20.3451 23.183 21.2484 23.5546 21.8534 23.9913C22.2801 24.2996 22.2767 24.4246 22.2734 24.5246V24.5463C22.2734 25.5696 21.9667 25.9546 21.7067 26.163C21.3368 26.458 20.5067 26.8196 18.8634 26.8196C17.4884 26.8196 15.9467 26.308 14.6167 25.6746C13.9081 25.3367 13.2241 24.949 12.5701 24.5146V30.9896C14.2034 31.7263 16.4634 32.5013 18.8634 32.5013C21.1967 32.5013 23.4934 32.0096 25.2551 30.6013C27.1251 29.1046 27.9551 26.933 27.9551 24.5463C27.9551 22.0963 26.6367 20.438 25.1784 19.3846C23.9201 18.4746 22.3451 17.8646 21.1768 17.4113L21.0301 17.353C19.6551 16.8196 18.7517 16.448 18.1467 16.0113C17.7217 15.703 17.7234 15.578 17.7267 15.478V15.4563C17.7267 14.433 18.0334 14.048 18.2934 13.8396C18.6634 13.5446 19.4934 13.183 21.1367 13.183C22.5117 13.183 24.0534 13.6946 25.3834 14.328C26.0584 14.6493 26.711 15.0157 27.3368 15.4246V8.9713C25.7118 8.2463 23.4917 7.5013 21.1367 7.5013Z" fill="#AEEA00"/>
</svg>
