<svg width="40" height="40" viewBox="0 0 40 40" fill="none" xmlns="http://www.w3.org/2000/svg">
<path fill-rule="evenodd" clip-rule="evenodd" d="M3.33331 11.6667C3.33331 8.52333 3.33331 6.95333 4.30998 5.97667C5.28665 5 6.85665 5 9.99998 5H30C33.1433 5 34.7133 5 35.69 5.97667C36.6666 6.95333 36.6666 8.52333 36.6666 11.6667C36.6666 14.81 36.6666 16.38 35.69 17.3567C34.7133 18.3333 33.1433 18.3333 30 18.3333H9.99998C6.85665 18.3333 5.28665 18.3333 4.30998 17.3567C3.33331 16.38 3.33331 14.81 3.33331 11.6667ZM9.99998 10.4167C9.66846 10.4167 9.35052 10.5484 9.1161 10.7828C8.88168 11.0172 8.74998 11.3351 8.74998 11.6667C8.74998 11.9982 8.88168 12.3161 9.1161 12.5505C9.35052 12.785 9.66846 12.9167 9.99998 12.9167H13.3333C13.6648 12.9167 13.9828 12.785 14.2172 12.5505C14.4516 12.3161 14.5833 11.9982 14.5833 11.6667C14.5833 11.3351 14.4516 11.0172 14.2172 10.7828C13.9828 10.5484 13.6648 10.4167 13.3333 10.4167H9.99998ZM17.0833 11.6667C17.0833 11.3351 17.215 11.0172 17.4494 10.7828C17.6839 10.5484 18.0018 10.4167 18.3333 10.4167H30C30.3315 10.4167 30.6494 10.5484 30.8839 10.7828C31.1183 11.0172 31.25 11.3351 31.25 11.6667C31.25 11.9982 31.1183 12.3161 30.8839 12.5505C30.6494 12.785 30.3315 12.9167 30 12.9167H18.3333C18.0018 12.9167 17.6839 12.785 17.4494 12.5505C17.215 12.3161 17.0833 11.9982 17.0833 11.6667ZM3.33331 28.3333C3.33331 25.19 3.33331 23.62 4.30998 22.6433C5.28665 21.6667 6.85665 21.6667 9.99998 21.6667H30C33.1433 21.6667 34.7133 21.6667 35.69 22.6433C36.6666 23.62 36.6666 25.19 36.6666 28.3333C36.6666 31.4767 36.6666 33.0467 35.69 34.0233C34.7133 35 33.1433 35 30 35H9.99998C6.85665 35 5.28665 35 4.30998 34.0233C3.33331 33.0467 3.33331 31.4767 3.33331 28.3333ZM9.99998 27.0833C9.66846 27.0833 9.35052 27.215 9.1161 27.4494C8.88168 27.6839 8.74998 28.0018 8.74998 28.3333C8.74998 28.6649 8.88168 28.9828 9.1161 29.2172C9.35052 29.4516 9.66846 29.5833 9.99998 29.5833H13.3333C13.6648 29.5833 13.9828 29.4516 14.2172 29.2172C14.4516 28.9828 14.5833 28.6649 14.5833 28.3333C14.5833 28.0018 14.4516 27.6839 14.2172 27.4494C13.9828 27.215 13.6648 27.0833 13.3333 27.0833H9.99998ZM17.0833 28.3333C17.0833 28.0018 17.215 27.6839 17.4494 27.4494C17.6839 27.215 18.0018 27.0833 18.3333 27.0833H30C30.3315 27.0833 30.6494 27.215 30.8839 27.4494C31.1183 27.6839 31.25 28.0018 31.25 28.3333C31.25 28.6649 31.1183 28.9828 30.8839 29.2172C30.6494 29.4516 30.3315 29.5833 30 29.5833H18.3333C18.0018 29.5833 17.6839 29.4516 17.4494 29.2172C17.215 28.9828 17.0833 28.6649 17.0833 28.3333Z" fill="#AEEA00"/>
</svg>
