<svg width="18" height="18" viewBox="0 0 18 18" fill="none" xmlns="http://www.w3.org/2000/svg">
<path d="M9.00074 12.9547L5.88824 14.8297C5.75074 14.9172 5.60698 14.9547 5.45698 14.9422C5.30698 14.9297 5.17573 14.8797 5.06323 14.7922C4.95073 14.7047 4.86323 14.5954 4.80073 14.4644C4.73823 14.3334 4.72573 14.1864 4.76323 14.0234L5.58823 10.4797L2.83198 8.09844C2.70698 7.98594 2.62898 7.85769 2.59798 7.71369C2.56698 7.56969 2.57623 7.42919 2.62573 7.29219C2.67523 7.15519 2.75023 7.04269 2.85073 6.95469C2.95123 6.86669 3.08873 6.81044 3.26323 6.78594L6.90073 6.46719L8.30698 3.12969C8.36948 2.97969 8.46649 2.86719 8.59799 2.79219C8.72949 2.71719 8.86374 2.67969 9.00074 2.67969C9.13773 2.67969 9.27199 2.71719 9.40348 2.79219C9.53498 2.86719 9.63199 2.97969 9.69449 3.12969L11.1007 6.46719L14.7382 6.78594C14.9132 6.81094 15.0507 6.86719 15.1507 6.95469C15.2507 7.04219 15.3257 7.15469 15.3757 7.29219C15.4257 7.42969 15.4352 7.57044 15.4042 7.71444C15.3732 7.85844 15.295 7.98644 15.1695 8.09844L12.4132 10.4797L13.2382 14.0234C13.2757 14.1859 13.2632 14.3329 13.2007 14.4644C13.1382 14.5959 13.0507 14.7052 12.9382 14.7922C12.8257 14.8792 12.6945 14.9292 12.5445 14.9422C12.3945 14.9552 12.2507 14.9177 12.1132 14.8297L9.00074 12.9547Z" fill="#FFDD1B"/>
</svg>
