<svg width="72" height="72" viewBox="0 0 72 72" fill="none" xmlns="http://www.w3.org/2000/svg">
<rect width="72" height="72" rx="36" fill="#F2F2F2"/>
<path d="M46.5 36C46.5 41.799 41.799 46.5 36 46.5M46.5 36C46.5 30.201 41.799 25.5 36 25.5M46.5 36H49.5M36 46.5C30.201 46.5 25.5 41.799 25.5 36M36 46.5V49.5M36 25.5C30.201 25.5 25.5 30.201 25.5 36M36 25.5V22.5M25.5 36H22.5M40.5 36C40.5 38.4854 38.4854 40.5 36 40.5C33.5146 40.5 31.5 38.4854 31.5 36C31.5 33.5146 33.5146 31.5 36 31.5C38.4854 31.5 40.5 33.5146 40.5 36Z" stroke="#AEEA00" stroke-width="3" stroke-linecap="round" stroke-linejoin="round"/>
</svg>
