<svg width="41" height="41" viewBox="0 0 41 41" fill="none" xmlns="http://www.w3.org/2000/svg">
<g clip-path="url(#clip0_76_227)">
<path d="M12.1667 33.8333H18.8333C18.8333 35.6667 17.3333 37.1667 15.5 37.1667C13.6667 37.1667 12.1667 35.6667 12.1667 33.8333ZM8.83333 32.1667H22.1667V28.8333H8.83333V32.1667ZM28 16.3333C28 22.7 23.5667 26.1 21.7167 27.1667H9.28333C7.43333 26.1 3 22.7 3 16.3333C3 9.43333 8.6 3.83333 15.5 3.83333C22.4 3.83333 28 9.43333 28 16.3333ZM24.6667 16.3333C24.6667 11.2833 20.55 7.16667 15.5 7.16667C10.45 7.16667 6.33333 11.2833 6.33333 16.3333C6.33333 20.45 8.81667 22.8167 10.25 23.8333H20.75C22.1833 22.8167 24.6667 20.45 24.6667 16.3333ZM36.1167 12.7833L33.8333 13.8333L36.1167 14.8833L37.1667 17.1667L38.2167 14.8833L40.5 13.8333L38.2167 12.7833L37.1667 10.5L36.1167 12.7833ZM32.1667 10.5L33.7333 7.06667L37.1667 5.5L33.7333 3.93333L32.1667 0.5L30.6 3.93333L27.1667 5.5L30.6 7.06667L32.1667 10.5Z" fill="black"/>
</g>
<defs>
<clipPath id="clip0_76_227">
<rect width="40" height="40" fill="white" transform="translate(0.5 0.5)"/>
</clipPath>
</defs>
</svg>
