<svg width="73" height="72" viewBox="0 0 73 72" fill="none" xmlns="http://www.w3.org/2000/svg">
<rect x="0.5" width="72" height="72" rx="36" fill="white"/>
<path d="M26 31.5V25.5C26 23.8431 27.3431 22.5 29 22.5H44C45.6569 22.5 47 23.8431 47 25.5V31.5M26 31.5H47M26 31.5V40.5M47 31.5V40.5M26 40.5V46.5C26 48.1569 27.3431 49.5 29 49.5H44C45.6569 49.5 47 48.1569 47 46.5V40.5M26 40.5H47M30.5 36H30.515M30.5 27H30.515M30.5 45H30.515" stroke="#AEEA00" stroke-width="3" stroke-linecap="round" stroke-linejoin="round"/>
</svg>
