<svg width="73" height="72" viewBox="0 0 73 72" fill="none" xmlns="http://www.w3.org/2000/svg">
<rect x="0.5" width="72" height="72" rx="36" fill="white"/>
<path d="M23.5176 24.014C23.1725 23.7402 22.734 23.6122 22.2958 23.6573C21.8576 23.7025 21.4544 23.9172 21.1724 24.2556C20.8904 24.5941 20.7519 25.0294 20.7865 25.4685C20.8211 25.9077 21.0261 26.3159 21.3576 26.606L26.5506 30.935L21.3576 35.264C21.0261 35.5541 20.8211 35.9623 20.7865 36.4015C20.7519 36.8407 20.8904 37.276 21.1724 37.6144C21.4544 37.9528 21.8576 38.1676 22.2958 38.2127C22.734 38.2578 23.1725 38.1298 23.5176 37.856L30.2676 32.231C30.4576 32.0726 30.6103 31.8745 30.7152 31.6505C30.82 31.4266 30.8744 31.1823 30.8744 30.935C30.8744 30.6877 30.82 30.4435 30.7152 30.2195C30.6103 29.9956 30.4576 29.7974 30.2676 29.639L23.5176 24.014ZM37.0626 29.2475C36.6151 29.2475 36.1859 29.4253 35.8694 29.7418C35.5529 30.0582 35.3751 30.4875 35.3751 30.935C35.3751 31.3826 35.5529 31.8118 35.8694 32.1283C36.1859 32.4447 36.6151 32.6225 37.0626 32.6225H50.5626C51.0102 32.6225 51.4394 32.4447 51.7559 32.1283C52.0723 31.8118 52.2501 31.3826 52.2501 30.935C52.2501 30.4875 52.0723 30.0582 51.7559 29.7418C51.4394 29.4253 51.0102 29.2475 50.5626 29.2475H37.0626ZM30.8751 38.81C30.8751 38.3625 31.0529 37.9332 31.3694 37.6168C31.6859 37.3003 32.1151 37.1225 32.5626 37.1225H50.5626C51.0102 37.1225 51.4394 37.3003 51.7559 37.6168C52.0723 37.9332 52.2501 38.3625 52.2501 38.81C52.2501 39.2576 52.0723 39.6868 51.7559 40.0033C51.4394 40.3197 51.0102 40.4975 50.5626 40.4975H32.5626C32.1151 40.4975 31.6859 40.3197 31.3694 40.0033C31.0529 39.6868 30.8751 39.2576 30.8751 38.81ZM32.5626 44.9975C32.1151 44.9975 31.6859 45.1753 31.3694 45.4918C31.0529 45.8082 30.8751 46.2375 30.8751 46.685C30.8751 47.1326 31.0529 47.5618 31.3694 47.8783C31.6859 48.1947 32.1151 48.3725 32.5626 48.3725H50.5626C51.0102 48.3725 51.4394 48.1947 51.7559 47.8783C52.0723 47.5618 52.2501 47.1326 52.2501 46.685C52.2501 46.2375 52.0723 45.8082 51.7559 45.4918C51.4394 45.1753 51.0102 44.9975 50.5626 44.9975H32.5626Z" fill="#AEEA00"/>
</svg>
