<svg width="73" height="72" viewBox="0 0 73 72" fill="none" xmlns="http://www.w3.org/2000/svg">
<rect x="0.5" width="72" height="72" rx="36" fill="white"/>
<path fill-rule="evenodd" clip-rule="evenodd" d="M35.0083 21H37.9918C40.0708 21 41.7242 21 43.0574 21.1107C44.4229 21.2241 45.5863 21.4613 46.6487 22.0133C48.2926 22.8672 49.6328 24.2074 50.4868 25.8512C51.0388 26.9138 51.2759 28.0772 51.3893 29.4426C51.5 30.7758 51.5 32.4293 51.5 34.5083V37.4918C51.5 39.5708 51.5 41.2242 51.3893 42.5574C51.2759 43.9229 51.0388 45.0863 50.4868 46.1487C49.6328 47.7926 48.2926 49.1328 46.6487 49.9868C45.5863 50.5388 44.4229 50.7759 43.0574 50.8893C41.7242 51 40.0708 51 37.9918 51H35.0083C32.9293 51 31.2758 51 29.9426 50.8893C28.5772 50.7759 27.4138 50.5388 26.3512 49.9868C24.7074 49.1328 23.3672 47.7926 22.5133 46.1487C21.9613 45.0863 21.7241 43.9229 21.6107 42.5574C21.5 41.2242 21.5 39.5708 21.5 37.4918V34.5083C21.5 32.4292 21.5 30.7758 21.6107 29.4426C21.7241 28.0772 21.9613 26.9138 22.5133 25.8512C23.3672 24.2074 24.7074 22.8672 26.3512 22.0133C27.4138 21.4613 28.5772 21.2241 29.9426 21.1107C31.2758 21 32.9292 21 35.0083 21ZM30.1909 24.1004C29.0143 24.1981 28.2971 24.3831 27.7342 24.6755C26.6383 25.2448 25.7448 26.1383 25.1755 27.2342C24.8831 27.7971 24.6981 28.5143 24.6004 29.6909C24.5012 30.8854 24.5 32.4142 24.5 34.575V37.425C24.5 39.5858 24.5012 41.1146 24.6004 42.3092C24.6981 43.4858 24.8831 44.2029 25.1755 44.7659C25.7448 45.8618 26.6383 46.7553 27.7342 47.3246C28.2971 47.6169 29.0143 47.8019 30.1909 47.8997C31.3854 47.9988 32.9142 48 35.075 48H37.925C40.0858 48 41.6146 47.9988 42.8092 47.8997C43.9858 47.8019 44.7029 47.6169 45.2659 47.3246C46.3618 46.7553 47.2553 45.8618 47.8246 44.7659C48.1169 44.2029 48.3019 43.4858 48.3997 42.3092C48.4988 41.1146 48.5 39.5858 48.5 37.425V34.575C48.5 32.4142 48.4988 30.8854 48.3997 29.6909C48.3019 28.5143 48.1169 27.7971 47.8246 27.2342C47.2553 26.1383 46.3618 25.2448 45.2659 24.6755C44.7029 24.3831 43.9858 24.1981 42.8092 24.1004C41.6146 24.0012 40.0858 24 37.925 24H35.075C32.9142 24 31.3854 24.0012 30.1909 24.1004ZM36.2426 28.136C37.0711 28.136 37.7426 28.8076 37.7426 29.636V37.0868L43.033 39.098C43.8074 39.3923 44.1965 40.2587 43.9021 41.033C43.6078 41.8074 42.7414 42.1965 41.9671 41.9021L35.7097 39.5235C35.1275 39.3021 34.7426 38.7441 34.7426 38.1213V29.636C34.7426 28.8076 35.4142 28.136 36.2426 28.136Z" fill="#AEEA00"/>
</svg>
