<svg width="73" height="72" viewBox="0 0 73 72" fill="none" xmlns="http://www.w3.org/2000/svg">
<rect x="0.5" width="72" height="72" rx="36" fill="white"/>
<path d="M50.825 34.5755C50.8432 34.9475 50.9992 35.2995 51.2626 35.5629C51.526 35.8263 51.8779 35.9823 52.25 36.0005V46.0205H20.75V36.0005C21.0557 35.9055 21.323 35.7153 21.5129 35.4575C21.7027 35.1998 21.8051 34.8881 21.8051 34.568C21.8051 34.2479 21.7027 33.9362 21.5129 33.6784C21.323 33.4207 21.0557 33.2304 20.75 33.1355V25.9805H52.25V33.1355C51.8755 33.1539 51.5214 33.312 51.2577 33.5786C50.9939 33.8451 50.8395 34.2008 50.825 34.5755Z" stroke="#AEEA00" stroke-width="2.865" stroke-miterlimit="10"/>
<path d="M39.3662 31.7109H33.6363H27.9062V37.4409H33.6363H39.3662H45.0962V31.7109H39.3662Z" stroke="#AEEA00" stroke-width="2.865" stroke-miterlimit="10"/>
<path d="M25.041 41.7305V46.0205" stroke="#AEEA00" stroke-width="2.865" stroke-miterlimit="10"/>
<path d="M30.7695 41.7305V46.0205" stroke="#AEEA00" stroke-width="2.865" stroke-miterlimit="10"/>
<path d="M36.5 41.7305V46.0205" stroke="#AEEA00" stroke-width="2.865" stroke-miterlimit="10"/>
<path d="M42.2305 41.7305V46.0205" stroke="#AEEA00" stroke-width="2.865" stroke-miterlimit="10"/>
<path d="M47.959 41.7305V46.0205" stroke="#AEEA00" stroke-width="2.865" stroke-miterlimit="10"/>
</svg>
