<svg width="73" height="72" viewBox="0 0 73 72" fill="none" xmlns="http://www.w3.org/2000/svg">
<rect x="0.5" width="72" height="72" rx="36" fill="white"/>
<path d="M41.495 21V24.57H38.255V21H34.745V24.57H31.505V21H27.935V24.57C27.1858 24.603 26.4761 24.9155 25.9458 25.4458C25.4155 25.9761 25.103 26.6858 25.07 27.435H21.5V31.005H25.07V34.215H21.5V37.785H25.07V40.995H21.5V44.565H25.07C25.103 45.3142 25.4155 46.0239 25.9458 46.5542C26.4761 47.0845 27.1858 47.397 27.935 47.43V51H31.505V47.43H34.745V51H38.255V47.43H41.495V51H45.065V47.43C45.8142 47.397 46.5239 47.0845 47.0542 46.5542C47.5845 46.0239 47.897 45.3142 47.93 44.565H51.5V40.995H47.93V37.785H51.5V34.215H47.93V31.005H51.5V27.435H47.93C47.897 26.6858 47.5845 25.9761 47.0542 25.4458C46.5239 24.9155 45.8142 24.603 45.065 24.57V21H41.495ZM43.79 43.86H29.21C29.0588 43.86 28.9138 43.7999 28.8069 43.6931C28.7001 43.5862 28.64 43.4412 28.64 43.29V28.71C28.64 28.5588 28.7001 28.4138 28.8069 28.3069C28.9138 28.2001 29.0588 28.14 29.21 28.14H43.79C43.9412 28.14 44.0862 28.2001 44.1931 28.3069C44.2999 28.4138 44.36 28.5588 44.36 28.71V43.29C44.36 43.4412 44.2999 43.5862 44.1931 43.6931C44.0862 43.7999 43.9412 43.86 43.79 43.86Z" fill="#AEEA00"/>
<path d="M37.7451 29.3086V34.6786H40.6851L35.4351 41.9686V36.5236H32.3301L37.7451 29.3086Z" fill="#AEEA00"/>
</svg>
