<svg width="73" height="72" viewBox="0 0 73 72" fill="none" xmlns="http://www.w3.org/2000/svg">
<rect x="0.5" width="72" height="72" rx="36" fill="white"/>
<path fill-rule="evenodd" clip-rule="evenodd" d="M36.5 21C44.7706 21 51.5 27.7294 51.5 36C51.5 44.2706 44.7706 51 36.5 51C28.2294 51 21.5 44.2706 21.5 36C21.5 27.7294 28.2294 21 36.5 21ZM36.5 24C29.8597 24 24.5 29.3597 24.5 36C24.5 42.6403 29.8597 48 36.5 48C43.1403 48 48.5 42.6403 48.5 36C48.5 29.3597 43.1403 24 36.5 24ZM36.5643 29.1174C37.6989 30.5928 38.0817 32.4078 37.7181 33.7328C37.6727 33.9509 39.2719 35.6511 42.5156 38.8336C43.5763 39.8943 43.5763 40.955 42.5156 42.0156C41.5173 43.0139 40.5191 43.0726 39.5208 42.1918L34.2566 37.1944C32.9314 37.558 31.1165 37.1752 29.6412 36.0405C28.5592 34.6177 28.1859 32.758 28.4873 31.4251L30.795 33.7328L33.1027 32.579L34.2566 30.2713L31.9489 27.9636C33.2817 27.6622 35.1415 28.0354 36.5643 29.1174Z" fill="#AEEA00"/>
</svg>
