<svg width="73" height="72" viewBox="0 0 73 72" fill="none" xmlns="http://www.w3.org/2000/svg">
<rect x="0.5" width="72" height="72" rx="36" fill="white"/>
<path d="M47 36C47 41.799 42.299 46.5 36.5 46.5M47 36C47 30.201 42.299 25.5 36.5 25.5M47 36H50M36.5 46.5C30.701 46.5 26 41.799 26 36M36.5 46.5V49.5M36.5 25.5C30.701 25.5 26 30.201 26 36M36.5 25.5V22.5M26 36H23M41 36C41 38.4854 38.9854 40.5 36.5 40.5C34.0146 40.5 32 38.4854 32 36C32 33.5146 34.0146 31.5 36.5 31.5C38.9854 31.5 41 33.5146 41 36Z" stroke="#AEEA00" stroke-width="3" stroke-linecap="round" stroke-linejoin="round"/>
</svg>
