<svg width="73" height="72" viewBox="0 0 73 72" fill="none" xmlns="http://www.w3.org/2000/svg">
<rect x="0.5" width="72" height="72" rx="36" fill="white"/>
<path d="M44.0645 27.6434L38.8373 22.4162C38.7185 22.2974 38.5997 22.2578 38.4413 22.2578C38.1245 22.2578 37.8869 22.4954 37.8869 22.8122V27.0098C37.8869 27.881 38.5997 28.5938 39.4709 28.5938H43.6685C43.9853 28.5938 44.2229 28.3562 44.2229 28.0394C44.2229 27.881 44.1833 27.7622 44.0645 27.6434ZM44.2229 31.7618C44.2229 31.3262 43.8665 30.9698 43.4309 30.9698H37.8869C36.5801 30.9698 35.5109 29.9006 35.5109 28.5938V23.0498C35.5109 22.6142 35.1545 22.2578 34.7189 22.2578H26.7989C25.4921 22.2578 24.4229 23.327 24.4229 24.6338V43.6418C24.4229 44.9486 25.4921 46.0178 26.7989 46.0178C26.7989 46.0178 34.2041 46.0178 34.8377 46.0178C35.4713 46.0178 35.6297 45.5822 35.5901 44.909C35.5505 44.2358 35.3129 41.345 37.2929 39.0482C39.2729 36.7514 42.5201 36.593 42.9953 36.593C43.4705 36.593 44.2625 36.5534 44.2229 35.8802C44.1833 35.207 44.2229 31.7618 44.2229 31.7618ZM27.1949 27.2474L29.1353 26.9702C29.1749 26.9702 29.2541 26.9306 29.2541 26.891L30.1253 25.109C30.2045 24.9902 30.3629 24.9902 30.4421 25.109L31.3133 26.891C31.3529 26.9306 31.3925 26.9702 31.4321 26.9702L33.3725 27.2474C33.4913 27.287 33.5705 27.4454 33.4517 27.5246L32.0261 28.9106C31.9865 28.9502 31.9865 28.9898 31.9865 29.069L32.3033 31.0094C32.3429 31.1282 32.1845 31.247 32.0657 31.1678L30.3233 30.257C30.2837 30.2174 30.2045 30.2174 30.1649 30.257L28.4225 31.1678C28.3037 31.247 28.1453 31.1282 28.1849 31.0094L28.5017 29.069C28.5017 29.0294 28.5017 28.9502 28.4621 28.9106L27.0365 27.5246C26.9969 27.4454 27.0761 27.287 27.1949 27.2474ZM34.3229 40.4738C34.3229 40.9094 33.9665 41.2658 33.5309 41.2658H28.3829C27.9473 41.2658 27.5909 40.9094 27.5909 40.4738V39.6818C27.5909 39.2462 27.9473 38.8898 28.3829 38.8898H33.5309C33.9665 38.8898 34.3229 39.2462 34.3229 39.6818V40.4738ZM38.6789 35.7218C38.6789 36.1574 38.3225 36.5138 37.8869 36.5138H28.3829C27.9473 36.5138 27.5909 36.1574 27.5909 35.7218V34.9298C27.5909 34.4942 27.9473 34.1378 28.3829 34.1378H37.8869C38.3225 34.1378 38.6789 34.4942 38.6789 34.9298V35.7218Z" fill="#AEEA00"/>
<path d="M42.9567 38.4531C39.8283 38.4531 37.2939 40.9875 37.2939 44.1159C37.2939 47.2443 39.8283 49.7787 42.9567 49.7787C46.0851 49.7787 48.6195 47.2443 48.6195 44.1159C48.6195 40.9875 46.0455 38.4531 42.9567 38.4531ZM43.9467 44.6307C43.7883 44.6307 43.6299 44.5911 43.4715 44.5515L41.2935 46.6899C41.1351 46.8483 40.9767 46.8879 40.8183 46.8879C40.6203 46.8879 40.5015 46.8483 40.3431 46.6899C40.1055 46.4523 40.1055 46.0167 40.3431 45.7395L42.5211 43.5615C42.4815 43.4427 42.4419 43.2843 42.4419 43.1259C42.3627 42.1359 43.1547 41.2251 44.1447 41.2251C44.3031 41.2251 44.4615 41.2647 44.6199 41.3043C44.6991 41.3043 44.6991 41.3835 44.6595 41.4627L43.7091 42.4527C43.6299 42.4923 43.6299 42.6507 43.7091 42.6903L44.3823 43.3635C44.4615 43.4427 44.5803 43.4427 44.6595 43.3635L45.6099 42.4131C45.6495 42.3735 45.7683 42.3735 45.7683 42.4527C45.8079 42.6111 45.8475 42.7695 45.8475 42.9279C45.8079 43.9179 44.9763 44.7099 43.9467 44.6307Z" fill="#AEEA00"/>
</svg>
