<svg width="72" height="73" viewBox="0 0 72 73" fill="none" xmlns="http://www.w3.org/2000/svg">
<rect y="0.5" width="72" height="72" rx="36" fill="#AEEA00"/>
<path d="M52.25 47.0391V53.5C52.25 53.8315 52.1183 54.1495 51.8839 54.3839C51.6495 54.6183 51.3315 54.75 51 54.75C50.6685 54.75 50.3505 54.6183 50.1161 54.3839C49.8817 54.1495 49.75 53.8315 49.75 53.5V47.0391C49.7442 45.4346 49.4083 43.8485 48.7631 42.3795C48.118 40.9105 47.1774 39.5899 46 38.5V47.6172C45.9998 47.8862 45.9128 48.1479 45.7519 48.3636C45.5911 48.5792 45.365 48.7372 45.1072 48.814C44.8494 48.8909 44.5737 48.8825 44.321 48.7902C44.0683 48.6979 43.8522 48.5265 43.7047 48.3016L42.0359 45.7531C42.0234 45.7344 42.0109 45.7141 42 45.6937C41.7549 45.2609 41.3479 44.9432 40.8685 44.8104C40.3891 44.6777 39.8766 44.7408 39.4437 44.9859C39.0109 45.2311 38.6932 45.6381 38.5604 46.1175C38.4277 46.5969 38.4908 47.1093 38.7359 47.5422L42.1938 52.8219C42.3753 53.0993 42.4391 53.4375 42.3713 53.762C42.3034 54.0866 42.1095 54.3708 41.832 54.5523C41.5546 54.7339 41.2164 54.7977 40.8919 54.7299C40.5674 54.662 40.2831 54.4681 40.1016 54.1906L36.6234 48.8781L36.5859 48.8187C36.0475 47.8961 35.8653 46.8083 36.0737 45.7605C36.282 44.7128 36.8665 43.7774 37.7169 43.1309C38.5673 42.4844 39.6249 42.1714 40.6902 42.2509C41.7555 42.3304 42.755 42.7969 43.5 43.5625V26H41C40.6685 26 40.3505 25.8683 40.1161 25.6339C39.8817 25.3995 39.75 25.0815 39.75 24.75C39.75 24.4185 39.8817 24.1005 40.1161 23.8661C40.3505 23.6317 40.6685 23.5 41 23.5H43.5C44.163 23.5 44.7989 23.7634 45.2678 24.2322C45.7366 24.7011 46 25.337 46 26V35.3156C47.9186 36.6121 49.4911 38.3581 50.5804 40.4014C51.6698 42.4448 52.2429 44.7235 52.25 47.0391ZM29.75 24.75C29.75 24.4185 29.6183 24.1005 29.3839 23.8661C29.1495 23.6317 28.8315 23.5 28.5 23.5H26C25.337 23.5 24.7011 23.7634 24.2322 24.2322C23.7634 24.7011 23.5 25.337 23.5 26V47.25C23.5 47.5815 23.6317 47.8995 23.8661 48.1339C24.1005 48.3683 24.4185 48.5 24.75 48.5C25.0815 48.5 25.3995 48.3683 25.6339 48.1339C25.8683 47.8995 26 47.5815 26 47.25V26H28.5C28.8315 26 29.1495 25.8683 29.3839 25.6339C29.6183 25.3995 29.75 25.0815 29.75 24.75ZM40.6344 31.3656C40.5183 31.2494 40.3804 31.1572 40.2287 31.0943C40.0769 31.0314 39.9143 30.999 39.75 30.999C39.5857 30.999 39.4231 31.0314 39.2713 31.0943C39.1196 31.1572 38.9817 31.2494 38.8656 31.3656L36 34.2328V18.5C36 18.1685 35.8683 17.8505 35.6339 17.6161C35.3995 17.3817 35.0815 17.25 34.75 17.25C34.4185 17.25 34.1005 17.3817 33.8661 17.6161C33.6317 17.8505 33.5 18.1685 33.5 18.5V34.2328L30.6344 31.3656C30.3998 31.1311 30.0817 30.9993 29.75 30.9993C29.4183 30.9993 29.1002 31.1311 28.8656 31.3656C28.6311 31.6002 28.4993 31.9183 28.4993 32.25C28.4993 32.5817 28.6311 32.8998 28.8656 33.1344L33.8656 38.1344C33.9817 38.2506 34.1196 38.3428 34.2713 38.4057C34.4231 38.4686 34.5857 38.501 34.75 38.501C34.9143 38.501 35.0769 38.4686 35.2287 38.4057C35.3804 38.3428 35.5183 38.2506 35.6344 38.1344L40.6344 33.1344C40.7506 33.0183 40.8428 32.8804 40.9057 32.7287C40.9686 32.5769 41.001 32.4143 41.001 32.25C41.001 32.0857 40.9686 31.9231 40.9057 31.7713C40.8428 31.6196 40.7506 31.4817 40.6344 31.3656Z" fill="black"/>
</svg>
