<svg width="24" height="25" viewBox="0 0 24 25" fill="none" xmlns="http://www.w3.org/2000/svg">
<path d="M10 15.25L15.19 12.25L10 9.25V15.25ZM21.56 7.42C21.69 7.89 21.78 8.52 21.84 9.32C21.91 10.12 21.94 10.81 21.94 11.41L22 12.25C22 14.44 21.84 16.05 21.56 17.08C21.31 17.98 20.73 18.56 19.83 18.81C19.36 18.94 18.5 19.03 17.18 19.09C15.88 19.16 14.69 19.19 13.59 19.19L12 19.25C7.81 19.25 5.2 19.09 4.17 18.81C3.27 18.56 2.69 17.98 2.44 17.08C2.31 16.61 2.22 15.98 2.16 15.18C2.09 14.38 2.06 13.69 2.06 13.09L2 12.25C2 10.06 2.16 8.45 2.44 7.42C2.69 6.52 3.27 5.94 4.17 5.69C4.64 5.56 5.5 5.47 6.82 5.41C8.12 5.34 9.31 5.31 10.41 5.31L12 5.25C16.19 5.25 18.8 5.41 19.83 5.69C20.73 5.94 21.31 6.52 21.56 7.42Z" fill="#1E1E1E"/>
</svg>
